<svg xmlns="http://www.w3.org/2000/svg" viewBox="0 0 800 600">
  <defs>
    <linearGradient id="wall" x1="0" y1="0" x2="0" y2="1">
      <stop offset="0" stop-color="#faf7f2"/>
      <stop offset="0.6" stop-color="#f7f3ec"/>
      <stop offset="1" stop-color="#f2ebdd"/>
    </linearGradient>
    <linearGradient id="floor" x1="0" y1="0" x2="0" y2="1">
      <stop offset="0" stop-color="#cbb287"/>
      <stop offset="0.5" stop-color="#c8a87c"/>
      <stop offset="1" stop-color="#a5876a"/>
    </linearGradient>
    <linearGradient id="oakH" x1="0" y1="0" x2="1" y2="0">
      <stop offset="0" stop-color="#cbb287"/>
      <stop offset="0.55" stop-color="#d8c19a"/>
      <stop offset="1" stop-color="#c8a87c"/>
    </linearGradient>
    <linearGradient id="oakV" x1="0" y1="0" x2="0" y2="1">
      <stop offset="0" stop-color="#d8c19a"/>
      <stop offset="1" stop-color="#c8a87c"/>
    </linearGradient>
    <linearGradient id="oakDoor" x1="0" y1="0" x2="1" y2="0">
      <stop offset="0" stop-color="#c8a87c"/>
      <stop offset="0.6" stop-color="#cbb287"/>
      <stop offset="1" stop-color="#bfa074"/>
    </linearGradient>
    <linearGradient id="oakDark" x1="0" y1="0" x2="0" y2="1">
      <stop offset="0" stop-color="#6d5138"/>
      <stop offset="1" stop-color="#4a3624"/>
    </linearGradient>
    <linearGradient id="midrail" x1="0" y1="0" x2="1" y2="0">
      <stop offset="0" stop-color="#a5876a"/>
      <stop offset="0.5" stop-color="#c8a87c"/>
      <stop offset="1" stop-color="#a5876a"/>
    </linearGradient>
    <linearGradient id="chrome" x1="0" y1="0" x2="1" y2="0">
      <stop offset="0" stop-color="#9a968f"/>
      <stop offset="0.22" stop-color="#e3e1dc"/>
      <stop offset="0.5" stop-color="#c9c5be"/>
      <stop offset="0.78" stop-color="#e3e1dc"/>
      <stop offset="1" stop-color="#9a968f"/>
    </linearGradient>
    <radialGradient id="chromeKnob" cx="0.35" cy="0.3" r="0.8">
      <stop offset="0" stop-color="#faf7f2"/>
      <stop offset="0.5" stop-color="#c9c5be"/>
      <stop offset="1" stop-color="#9a968f"/>
    </radialGradient>
    <linearGradient id="glass" x1="0" y1="0" x2="1" y2="1">
      <stop offset="0" stop-color="#b8cdd6"/>
      <stop offset="0.5" stop-color="#faf7f2"/>
      <stop offset="1" stop-color="#c9d5da"/>
    </linearGradient>
    <radialGradient id="glassWarm" cx="0.4" cy="0.4" r="0.85">
      <stop offset="0" stop-color="#cf9f5c"/>
      <stop offset="0.55" stop-color="#e8dcc6"/>
      <stop offset="1" stop-color="#d8c19a"/>
    </radialGradient>
    <linearGradient id="leather" x1="0" y1="0" x2="0" y2="1">
      <stop offset="0" stop-color="#cf9f5c"/>
      <stop offset="0.5" stop-color="#b98a4a"/>
      <stop offset="1" stop-color="#8a5a20"/>
    </linearGradient>
    <linearGradient id="helmetG" x1="0" y1="0" x2="1" y2="1">
      <stop offset="0" stop-color="#e3e1dc"/>
      <stop offset="0.5" stop-color="#b8cdd6"/>
      <stop offset="1" stop-color="#9a968f"/>
    </linearGradient>
    <linearGradient id="ropeCord" x1="0" y1="0" x2="0" y2="1">
      <stop offset="0" stop-color="#f0e6d2"/>
      <stop offset="0.5" stop-color="#e8dcc6"/>
      <stop offset="1" stop-color="#cbb287"/>
    </linearGradient>
    <linearGradient id="velvet" x1="0" y1="0" x2="0" y2="1">
      <stop offset="0" stop-color="#8a8c62"/>
      <stop offset="0.55" stop-color="#7a7c5c"/>
      <stop offset="1" stop-color="#63654a"/>
    </linearGradient>
    <linearGradient id="warmBeam" x1="0" y1="0" x2="0" y2="1">
      <stop offset="0" stop-color="#e6bd7c"/>
      <stop offset="1" stop-color="#cf9f5c"/>
    </linearGradient>
    <radialGradient id="shadowG" cx="0.5" cy="0.5" r="0.5">
      <stop offset="0" stop-color="#1f1b16" stop-opacity="0.18"/>
      <stop offset="1" stop-color="#1f1b16" stop-opacity="0"/>
    </radialGradient>
    <filter id="soft" x="-30%" y="-30%" width="160%" height="160%">
      <feGaussianBlur stdDeviation="6"/>
    </filter>
    <filter id="softlg" x="-40%" y="-40%" width="180%" height="180%">
      <feGaussianBlur stdDeviation="16"/>
    </filter>
    <filter id="softsm" x="-30%" y="-30%" width="160%" height="160%">
      <feGaussianBlur stdDeviation="1.6"/>
    </filter>
  </defs>

  <!-- backdrop -->
  <rect x="0" y="0" width="800" height="404" fill="url(#wall)"/>
  <rect x="0" y="396" width="800" height="204" fill="url(#floor)"/>

  <!-- warm raking light band behind objects -->
  <polygon points="540,0 762,0 486,600 262,600" fill="url(#warmBeam)" opacity="0.26" filter="url(#softlg)"/>
  <ellipse cx="400" cy="30" rx="420" ry="130" fill="#faf7f2" opacity="0.3" filter="url(#softlg)"/>

  <!-- floor grain + warm reflection pool -->
  <ellipse cx="320" cy="474" rx="180" ry="34" fill="#cf9f5c" opacity="0.12" filter="url(#softlg)"/>
  <path d="M0 430 C200 424 560 436 800 428" stroke="#a5876a" stroke-width="2" fill="none" opacity="0.28"/>
  <path d="M0 470 C220 476 540 464 800 472" stroke="#8a6a4a" stroke-width="2" fill="none" opacity="0.22"/>
  <path d="M0 510 C240 504 560 516 800 508" stroke="#a5876a" stroke-width="2" fill="none" opacity="0.26"/>
  <path d="M0 550 C220 556 560 544 800 552" stroke="#8a6a4a" stroke-width="2" fill="none" opacity="0.2"/>
  <line x1="180" y1="430" x2="180" y2="470" stroke="#8a6a4a" stroke-width="1.5" opacity="0.18"/>
  <line x1="470" y1="470" x2="470" y2="510" stroke="#8a6a4a" stroke-width="1.5" opacity="0.18"/>
  <line x1="300" y1="510" x2="300" y2="550" stroke="#8a6a4a" stroke-width="1.5" opacity="0.18"/>
  <line x1="620" y1="430" x2="620" y2="470" stroke="#8a6a4a" stroke-width="1.5" opacity="0.16"/>

  <!-- skirting where wall meets floor -->
  <rect x="0" y="390" width="800" height="12" fill="url(#oakDark)"/>
  <rect x="0" y="389" width="800" height="2.4" fill="#d8c19a" opacity="0.5"/>

  <!-- background framed circuit poster (soft focus) -->
  <g filter="url(#softsm)" opacity="0.92">
    <rect x="590" y="30" width="152" height="172" rx="6" fill="#15130f"/>
    <rect x="600" y="40" width="132" height="152" rx="3" fill="#f7f3ec"/>
    <rect x="608" y="48" width="116" height="136" rx="3" fill="#3d3a36"/>
    <path d="M624 158 C616 128 648 122 656 100 C662 82 636 72 648 58 C660 46 700 52 706 76 C712 100 686 108 692 132 C698 154 672 160 660 168 C644 178 632 176 624 158 Z" fill="none" stroke="#cf9f5c" stroke-width="4" stroke-linecap="round" stroke-linejoin="round"/>
    <path d="M632 150 C626 128 652 122 658 104" fill="none" stroke="#8a8c62" stroke-width="2.4" stroke-linecap="round" opacity="0.8"/>
    <circle cx="648" cy="58" r="3.4" fill="#b98a4a"/>
  </g>

  <!-- cabinet ground shadow -->
  <ellipse cx="266" cy="552" rx="214" ry="17" fill="url(#shadowG)" filter="url(#soft)"/>

  <!-- ===== oak display cabinet ===== -->
  <rect x="70" y="80" width="390" height="466" rx="14" fill="url(#oakH)"/>
  <rect x="74" y="84" width="382" height="458" rx="11" fill="none" stroke="#e8dcc6" stroke-width="1.4" opacity="0.35"/>
  <rect x="74" y="82" width="382" height="3.2" fill="#f7f3ec" opacity="0.35"/>

  <!-- warm interior glow behind glass -->
  <ellipse cx="262" cy="150" rx="158" ry="94" fill="#cf9f5c" opacity="0.2" filter="url(#soft)"/>

  <!-- glass compartment back + shelf -->
  <rect x="98" y="106" width="334" height="178" rx="8" fill="url(#glassWarm)"/>
  <rect x="100" y="195" width="330" height="6" rx="3" fill="url(#oakDark)"/>
  <rect x="100" y="194" width="330" height="1.6" fill="#e8dcc6" opacity="0.5"/>

  <!-- helmet as art (upper shelf) -->
  <rect x="288" y="190" width="66" height="8" rx="3" fill="url(#oakDark)"/>
  <ellipse cx="322" cy="166" rx="42" ry="36" fill="url(#helmetG)"/>
  <path d="M282 168 C282 150 300 134 322 134 C344 134 362 150 362 168 C362 176 356 184 348 188 L296 188 C288 184 282 176 282 168 Z" fill="#9aa7ac" opacity="0.55"/>
  <path d="M290 172 C290 158 304 148 322 148 C332 148 342 152 348 158 L346 176 L294 176 Z" fill="#b8cdd6" opacity="0.75"/>
  <path d="M300 148 C308 142 320 140 330 142" stroke="#faf7f2" stroke-width="3" fill="none" opacity="0.5" stroke-linecap="round"/>

  <!-- leather handbag as art (lower shelf) -->
  <path d="M138 262 L232 262 L226 214 C226 208 220 204 214 204 L156 204 C150 204 144 208 144 214 Z" fill="url(#leather)"/>
  <path d="M138 232 L232 232 L230 262 L140 262 Z" fill="#8a5a20" opacity="0.35"/>
  <path d="M158 204 C158 188 172 182 185 182 C198 182 212 188 212 204" fill="none" stroke="#8a5a20" stroke-width="5" stroke-linecap="round"/>
  <path d="M158 204 C158 190 170 184 185 184 C200 184 212 190 212 204" fill="none" stroke="#cf9f5c" stroke-width="1.6" stroke-linecap="round" opacity="0.7"/>
  <rect x="178" y="228" width="14" height="10" rx="2.5" fill="url(#chromeKnob)"/>
  <path d="M144 216 L226 216" stroke="#cf9f5c" stroke-width="1.4" opacity="0.4"/>

  <!-- glass pane + reflections -->
  <rect x="98" y="106" width="334" height="178" rx="8" fill="url(#glass)" fill-opacity="0.34"/>
  <polygon points="120,106 170,106 96,284 96,224" fill="#ffffff" opacity="0.16"/>
  <polygon points="220,106 246,106 150,284 128,284" fill="#ffffff" opacity="0.1"/>
  <rect x="98" y="106" width="334" height="178" rx="8" fill="none" stroke="#a5876a" stroke-width="2.4" opacity="0.55"/>
  <rect x="98" y="106" width="334" height="178" rx="8" fill="none" stroke="#f0e6d2" stroke-width="1" opacity="0.3"/>

  <!-- mid rail -->
  <rect x="70" y="300" width="390" height="26" fill="url(#midrail)"/>
  <rect x="98" y="300" width="334" height="4" fill="#4a3624" opacity="0.4"/>
  <rect x="70" y="300" width="390" height="2" fill="#e8dcc6" opacity="0.45"/>

  <!-- lower closed oak doors -->
  <rect x="82" y="330" width="178" height="198" rx="8" fill="url(#oakDoor)"/>
  <rect x="270" y="330" width="178" height="198" rx="8" fill="url(#oakDoor)"/>
  <rect x="96" y="344" width="150" height="170" rx="6" fill="url(#oakV)" stroke="#a5876a" stroke-width="1.4" opacity="0.95"/>
  <rect x="284" y="344" width="150" height="170" rx="6" fill="url(#oakV)" stroke="#a5876a" stroke-width="1.4" opacity="0.95"/>
  <!-- door grain -->
  <path d="M124 350 C128 400 120 450 126 508" stroke="#6d5138" stroke-width="1.2" fill="none" opacity="0.14"/>
  <path d="M152 350 C156 402 148 452 154 508" stroke="#6d5138" stroke-width="1.2" fill="none" opacity="0.12"/>
  <path d="M182 350 C186 400 178 452 184 508" stroke="#6d5138" stroke-width="1.2" fill="none" opacity="0.15"/>
  <path d="M212 350 C216 402 208 450 214 508" stroke="#6d5138" stroke-width="1.2" fill="none" opacity="0.12"/>
  <path d="M312 350 C316 400 308 450 314 508" stroke="#6d5138" stroke-width="1.2" fill="none" opacity="0.14"/>
  <path d="M342 350 C346 402 338 452 344 508" stroke="#6d5138" stroke-width="1.2" fill="none" opacity="0.12"/>
  <path d="M372 350 C376 400 368 452 374 508" stroke="#6d5138" stroke-width="1.2" fill="none" opacity="0.15"/>
  <path d="M402 350 C406 402 398 450 404 508" stroke="#6d5138" stroke-width="1.2" fill="none" opacity="0.12"/>
  <!-- slim chrome handles -->
  <rect x="242" y="398" width="7" height="72" rx="3.5" fill="url(#chrome)"/>
  <rect x="243.6" y="400" width="1.6" height="68" rx="0.8" fill="#faf7f2" opacity="0.7"/>
  <rect x="281" y="398" width="7" height="72" rx="3.5" fill="url(#chrome)"/>
  <rect x="282.6" y="400" width="1.6" height="68" rx="0.8" fill="#faf7f2" opacity="0.7"/>
  <circle cx="245.5" cy="404" r="1.6" fill="#9a968f"/>
  <circle cx="245.5" cy="464" r="1.6" fill="#9a968f"/>
  <circle cx="284.5" cy="404" r="1.6" fill="#9a968f"/>
  <circle cx="284.5" cy="464" r="1.6" fill="#9a968f"/>

  <!-- toe kick -->
  <rect x="82" y="528" width="366" height="16" rx="3" fill="url(#oakDark)"/>
  <rect x="82" y="528" width="366" height="2" fill="#8a6a4a" opacity="0.5"/>

  <!-- cabinet rim light -->
  <path d="M457 92 L457 536" stroke="#f0e6d2" stroke-width="3" opacity="0.32" stroke-linecap="round"/>
  <path d="M84 90 L84 300" stroke="#8a6a4a" stroke-width="2" opacity="0.2" stroke-linecap="round"/>

  <!-- ===== rope bench (foreground right) ===== -->
  <ellipse cx="638" cy="556" rx="150" ry="14" fill="url(#shadowG)" filter="url(#soft)"/>
  <!-- legs -->
  <rect x="540" y="470" width="16" height="88" rx="6" fill="url(#oakV)"/>
  <rect x="724" y="470" width="16" height="88" rx="6" fill="url(#oakV)"/>
  <ellipse cx="548" cy="498" rx="9" ry="4" fill="#a5876a" opacity="0.6"/>
  <ellipse cx="732" cy="498" rx="9" ry="4" fill="#a5876a" opacity="0.6"/>
  <rect x="540" y="470" width="4" height="88" rx="2" fill="#e8dcc6" opacity="0.3"/>
  <rect x="724" y="470" width="4" height="88" rx="2" fill="#e8dcc6" opacity="0.3"/>
  <!-- seat frame -->
  <rect x="518" y="426" width="240" height="54" rx="11" fill="url(#oakH)"/>
  <rect x="518" y="426" width="240" height="3" rx="1.5" fill="#f0e6d2" opacity="0.4"/>
  <rect x="530" y="434" width="216" height="34" rx="8" fill="url(#oakDark)"/>
  <!-- wound rope cords -->
  <rect x="534" y="436" width="208" height="7" rx="3.5" fill="url(#ropeCord)"/>
  <rect x="534" y="444.5" width="208" height="7" rx="3.5" fill="url(#ropeCord)"/>
  <rect x="534" y="453" width="208" height="7" rx="3.5" fill="url(#ropeCord)"/>
  <rect x="534" y="461.5" width="208" height="6" rx="3" fill="url(#ropeCord)"/>
  <g stroke="#cbb287" stroke-width="1.1" opacity="0.55">
    <line x1="548" y1="437" x2="554" y2="442"/>
    <line x1="572" y1="437" x2="578" y2="442"/>
    <line x1="596" y1="437" x2="602" y2="442"/>
    <line x1="620" y1="437" x2="626" y2="442"/>
    <line x1="644" y1="437" x2="650" y2="442"/>
    <line x1="668" y1="437" x2="674" y2="442"/>
    <line x1="692" y1="437" x2="698" y2="442"/>
    <line x1="716" y1="437" x2="722" y2="442"/>
    <line x1="560" y1="454" x2="566" y2="459"/>
    <line x1="584" y1="454" x2="590" y2="459"/>
    <line x1="608" y1="454" x2="614" y2="459"/>
    <line x1="632" y1="454" x2="638" y2="459"/>
    <line x1="656" y1="454" x2="662" y2="459"/>
    <line x1="680" y1="454" x2="686" y2="459"/>
    <line x1="704" y1="454" x2="710" y2="459"/>
  </g>
  <rect x="574" y="434" width="4" height="34" rx="2" fill="#a5876a" opacity="0.35"/>
  <rect x="698" y="434" width="4" height="34" rx="2" fill="#a5876a" opacity="0.35"/>

  <!-- olive velvet cushion on bench end -->
  <ellipse cx="700" cy="430" rx="52" ry="12" fill="url(#shadowG)" opacity="0.7" filter="url(#softsm)"/>
  <rect x="654" y="398" width="94" height="34" rx="14" fill="url(#velvet)"/>
  <path d="M660 404 C680 398 722 398 742 406" stroke="#a1a37a" stroke-width="2" fill="none" opacity="0.6" stroke-linecap="round"/>
  <ellipse cx="690" cy="410" rx="30" ry="10" fill="#9a9c70" opacity="0.35"/>
  <path d="M656 424 C680 428 722 428 746 424" stroke="#4f5138" stroke-width="1.6" fill="none" opacity="0.6"/>
  <circle cx="654" cy="415" r="3.4" fill="#63654a"/>
  <circle cx="748" cy="415" r="3.4" fill="#63654a"/>

  <!-- bench rim light -->
  <path d="M519 430 C560 424 720 424 757 430" stroke="#f0e6d2" stroke-width="2" fill="none" opacity="0.3" stroke-linecap="round"/>

  <!-- floating dust in raking light -->
  <g fill="#f0e6d2" filter="url(#softsm)">
    <circle cx="330" cy="180" r="2.4" opacity="0.5"/>
    <circle cx="392" cy="250" r="1.8" opacity="0.45"/>
    <circle cx="360" cy="330" r="2.6" opacity="0.4"/>
    <circle cx="430" cy="300" r="1.6" opacity="0.5"/>
    <circle cx="300" cy="360" r="2" opacity="0.38"/>
    <circle cx="470" cy="210" r="2.2" opacity="0.42"/>
    <circle cx="510" cy="360" r="1.8" opacity="0.4"/>
  </g>

  <!-- final soft warm wash over foreground -->
  <ellipse cx="470" cy="120" rx="240" ry="150" fill="#cf9f5c" opacity="0.08" filter="url(#softlg)"/>
</svg>
