<svg xmlns="http://www.w3.org/2000/svg" viewBox="0 0 800 600">
  <defs>
    <linearGradient id="wallGrad" x1="0" y1="0" x2="0" y2="1">
      <stop offset="0" stop-color="#efe6d5"/>
      <stop offset="0.6" stop-color="#f2ebda"/>
      <stop offset="1" stop-color="#e8dcc6"/>
    </linearGradient>
    <linearGradient id="wallGrad2" x1="0" y1="0" x2="0" y2="1">
      <stop offset="0" stop-color="#e6d9c2"/>
      <stop offset="1" stop-color="#efe3cd"/>
    </linearGradient>
    <radialGradient id="wallGlow" cx="0.62" cy="0.38" r="0.6">
      <stop offset="0" stop-color="#f2d9a6" stop-opacity="0.55"/>
      <stop offset="0.55" stop-color="#e7c98e" stop-opacity="0.18"/>
      <stop offset="1" stop-color="#e7c98e" stop-opacity="0"/>
    </radialGradient>
    <linearGradient id="floorGrad" x1="0" y1="0" x2="0" y2="1">
      <stop offset="0" stop-color="#c8a87c"/>
      <stop offset="0.5" stop-color="#cbb287"/>
      <stop offset="1" stop-color="#b8975f"/>
    </linearGradient>
    <radialGradient id="floorSheen" cx="0.6" cy="0.1" r="0.9">
      <stop offset="0" stop-color="#e6c98e" stop-opacity="0.5"/>
      <stop offset="1" stop-color="#e6c98e" stop-opacity="0"/>
    </radialGradient>
    <linearGradient id="skirtGrad" x1="0" y1="0" x2="0" y2="1">
      <stop offset="0" stop-color="#e8dcc6"/>
      <stop offset="1" stop-color="#d8c19a"/>
    </linearGradient>
    <linearGradient id="curtainGrad" x1="0" y1="0" x2="0" y2="1">
      <stop offset="0" stop-color="#e0d3bd"/>
      <stop offset="0.5" stop-color="#e8dcc6"/>
      <stop offset="1" stop-color="#d3c3a5"/>
    </linearGradient>
    <linearGradient id="curtainFold" x1="0" y1="0" x2="1" y2="0">
      <stop offset="0" stop-color="#c9b795" stop-opacity="0.9"/>
      <stop offset="0.5" stop-color="#f2e9d6" stop-opacity="0.9"/>
      <stop offset="1" stop-color="#c9b795" stop-opacity="0.9"/>
    </linearGradient>
    <linearGradient id="woodH" x1="0" y1="0" x2="0" y2="1">
      <stop offset="0" stop-color="#d8c19a"/>
      <stop offset="0.5" stop-color="#cbb287"/>
      <stop offset="1" stop-color="#b9975f"/>
    </linearGradient>
    <linearGradient id="woodDoor" x1="0" y1="0" x2="1" y2="1">
      <stop offset="0" stop-color="#d8c19a"/>
      <stop offset="1" stop-color="#c0a06f"/>
    </linearGradient>
    <linearGradient id="chromeGrad" x1="0" y1="0" x2="0" y2="1">
      <stop offset="0" stop-color="#e3e1dc"/>
      <stop offset="0.5" stop-color="#c9c5be"/>
      <stop offset="1" stop-color="#9a968f"/>
    </linearGradient>
    <linearGradient id="tvScreen" x1="0" y1="0" x2="1" y2="1">
      <stop offset="0" stop-color="#2a2724"/>
      <stop offset="0.55" stop-color="#3d3a36"/>
      <stop offset="1" stop-color="#15130f"/>
    </linearGradient>
    <radialGradient id="tvGlow" cx="0.5" cy="0.5" r="0.7">
      <stop offset="0" stop-color="#8aa3ad" stop-opacity="0.35"/>
      <stop offset="1" stop-color="#8aa3ad" stop-opacity="0"/>
    </radialGradient>
    <radialGradient id="globeGrad" cx="0.4" cy="0.36" r="0.75">
      <stop offset="0" stop-color="#fff4d8"/>
      <stop offset="0.55" stop-color="#f6e2b4"/>
      <stop offset="1" stop-color="#e8c98a"/>
    </radialGradient>
    <radialGradient id="globeHalo" cx="0.5" cy="0.5" r="0.5">
      <stop offset="0" stop-color="#ffe9b8" stop-opacity="0.85"/>
      <stop offset="0.5" stop-color="#f2cf87" stop-opacity="0.35"/>
      <stop offset="1" stop-color="#f2cf87" stop-opacity="0"/>
    </radialGradient>
    <radialGradient id="rugGrad" cx="0.5" cy="0.5" r="0.6">
      <stop offset="0" stop-color="#e8dcc6"/>
      <stop offset="1" stop-color="#d3c09a"/>
    </radialGradient>
    <linearGradient id="boucle" x1="0" y1="0" x2="0" y2="1">
      <stop offset="0" stop-color="#ffffff"/>
      <stop offset="0.6" stop-color="#f7f3ec"/>
      <stop offset="1" stop-color="#e6ddcd"/>
    </linearGradient>
    <linearGradient id="boucleSeat" x1="0" y1="0" x2="0" y2="1">
      <stop offset="0" stop-color="#faf7f2"/>
      <stop offset="1" stop-color="#e2d8c6"/>
    </linearGradient>
    <radialGradient id="lampGlow" cx="0.5" cy="0.5" r="0.5">
      <stop offset="0" stop-color="#ffdf9e" stop-opacity="0.95"/>
      <stop offset="0.5" stop-color="#f0bf72" stop-opacity="0.4"/>
      <stop offset="1" stop-color="#f0bf72" stop-opacity="0"/>
    </radialGradient>
    <linearGradient id="lampShade" x1="0" y1="0" x2="0" y2="1">
      <stop offset="0" stop-color="#fbeecb"/>
      <stop offset="1" stop-color="#e6c98a"/>
    </linearGradient>
    <linearGradient id="potGrad" x1="0" y1="0" x2="0" y2="1">
      <stop offset="0" stop-color="#d8c19a"/>
      <stop offset="1" stop-color="#a5876a"/>
    </linearGradient>
    <linearGradient id="posterGrad" x1="0" y1="0" x2="1" y2="1">
      <stop offset="0" stop-color="#e8dcc6"/>
      <stop offset="1" stop-color="#d8c19a"/>
    </linearGradient>
  </defs>

  <!-- WALL -->
  <rect x="0" y="0" width="800" height="410" fill="url(#wallGrad)"/>
  <rect x="0" y="0" width="800" height="410" fill="url(#wallGlow)"/>
  <rect x="0" y="60" width="800" height="2" fill="#e6d6b8" opacity="0.5"/>

  <!-- FLOOR -->
  <rect x="0" y="400" width="800" height="200" fill="url(#floorGrad)"/>
  <rect x="0" y="400" width="800" height="200" fill="url(#floorSheen)"/>
  <!-- plank seams -->
  <line x1="0" y1="452" x2="800" y2="452" stroke="#a5876a" stroke-width="1.4" opacity="0.35"/>
  <line x1="0" y1="510" x2="800" y2="510" stroke="#a5876a" stroke-width="1.4" opacity="0.35"/>
  <line x1="0" y1="570" x2="800" y2="570" stroke="#a5876a" stroke-width="1.4" opacity="0.35"/>
  <line x1="120" y1="400" x2="120" y2="452" stroke="#a5876a" stroke-width="1" opacity="0.25"/>
  <line x1="330" y1="400" x2="330" y2="452" stroke="#a5876a" stroke-width="1" opacity="0.25"/>
  <line x1="560" y1="400" x2="560" y2="452" stroke="#a5876a" stroke-width="1" opacity="0.25"/>
  <line x1="220" y1="452" x2="220" y2="510" stroke="#a5876a" stroke-width="1" opacity="0.25"/>
  <line x1="470" y1="452" x2="470" y2="510" stroke="#a5876a" stroke-width="1" opacity="0.25"/>
  <line x1="680" y1="452" x2="680" y2="510" stroke="#a5876a" stroke-width="1" opacity="0.25"/>
  <line x1="120" y1="510" x2="120" y2="570" stroke="#a5876a" stroke-width="1" opacity="0.25"/>
  <line x1="400" y1="510" x2="400" y2="570" stroke="#a5876a" stroke-width="1" opacity="0.25"/>
  <line x1="640" y1="510" x2="640" y2="570" stroke="#a5876a" stroke-width="1" opacity="0.25"/>
  <!-- warm floor pool -->
  <ellipse cx="470" cy="430" rx="240" ry="34" fill="#e6c58a" opacity="0.28"/>

  <!-- SKIRTING -->
  <rect x="0" y="395" width="800" height="12" fill="url(#skirtGrad)"/>
  <line x1="0" y1="396" x2="800" y2="396" stroke="#fff" stroke-width="1" opacity="0.5"/>
  <line x1="0" y1="406" x2="800" y2="406" stroke="#a5876a" stroke-width="1" opacity="0.5"/>

  <!-- LEFT CURTAIN -->
  <g>
    <rect x="0" y="30" width="96" height="380" fill="url(#curtainGrad)"/>
    <rect x="8" y="30" width="12" height="365" fill="url(#curtainFold)" opacity="0.6"/>
    <rect x="30" y="30" width="12" height="365" fill="url(#curtainFold)" opacity="0.6"/>
    <rect x="52" y="30" width="12" height="365" fill="url(#curtainFold)" opacity="0.6"/>
    <rect x="74" y="30" width="12" height="365" fill="url(#curtainFold)" opacity="0.6"/>
    <path d="M0 395 Q20 405 40 396 Q62 406 84 396 L96 396 L96 410 L0 410 Z" fill="#d3c3a5"/>
    <rect x="0" y="26" width="100" height="8" rx="4" fill="#a5876a"/>
  </g>

  <!-- RIGHT CURTAIN -->
  <g>
    <rect x="706" y="30" width="94" height="380" fill="url(#curtainGrad)"/>
    <rect x="712" y="30" width="12" height="365" fill="url(#curtainFold)" opacity="0.6"/>
    <rect x="734" y="30" width="12" height="365" fill="url(#curtainFold)" opacity="0.6"/>
    <rect x="756" y="30" width="12" height="365" fill="url(#curtainFold)" opacity="0.6"/>
    <rect x="778" y="30" width="12" height="365" fill="url(#curtainFold)" opacity="0.6"/>
    <path d="M706 396 Q728 406 750 396 Q772 406 794 396 L800 396 L800 410 L706 410 Z" fill="#d3c3a5"/>
    <rect x="700" y="26" width="100" height="8" rx="4" fill="#a5876a"/>
  </g>

  <!-- FRAMED POSTER -->
  <g>
    <rect x="132" y="118" width="118" height="150" rx="4" fill="#a5876a"/>
    <rect x="139" y="125" width="104" height="136" rx="2" fill="url(#posterGrad)"/>
    <circle cx="191" cy="178" r="30" fill="#cf9f5c" opacity="0.85"/>
    <path d="M150 235 Q175 200 191 218 Q210 240 232 210 L232 258 L150 258 Z" fill="#8a8c62" opacity="0.7"/>
    <rect x="150" y="140" width="30" height="6" rx="3" fill="#b98a4a" opacity="0.5"/>
  </g>

  <!-- PENDANT GLOBE -->
  <g>
    <line x1="628" y1="30" x2="628" y2="150" stroke="#6d5138" stroke-width="2.5"/>
    <circle cx="628" cy="196" r="70" fill="url(#globeHalo)"/>
    <circle cx="628" cy="196" r="42" fill="url(#globeGrad)"/>
    <ellipse cx="614" cy="182" rx="14" ry="18" fill="#fff8e6" opacity="0.7"/>
    <path d="M591 190 Q628 200 665 190" stroke="#e8c98a" stroke-width="1" opacity="0.5" fill="none"/>
    <path d="M593 205 Q628 214 663 205" stroke="#e8c98a" stroke-width="1" opacity="0.5" fill="none"/>
    <rect x="620" y="152" width="16" height="6" rx="2" fill="#5c4632"/>
  </g>

  <!-- WALL-MOUNTED TV -->
  <g>
    <rect x="322" y="150" width="184" height="112" rx="7" fill="#2a2724"/>
    <rect x="330" y="158" width="168" height="96" rx="4" fill="url(#tvScreen)"/>
    <rect x="330" y="158" width="168" height="96" rx="4" fill="url(#tvGlow)"/>
    <path d="M340 240 L378 190 L406 214 L440 172 L488 240 Z" fill="#3d4a4a" opacity="0.6"/>
    <ellipse cx="452" cy="188" rx="12" ry="12" fill="#8aa3ad" opacity="0.4"/>
    <rect x="336" y="164" width="70" height="30" rx="4" fill="#4a5155" opacity="0.35"/>
  </g>

  <!-- SIDEBOARD -->
  <g>
    <ellipse cx="430" cy="430" rx="180" ry="16" fill="rgba(31,27,22,0.12)"/>
    <rect x="292" y="336" width="288" height="86" rx="8" fill="url(#woodH)"/>
    <rect x="292" y="336" width="288" height="14" rx="7" fill="#e0cba2"/>
    <!-- three doors -->
    <rect x="300" y="354" width="88" height="60" rx="5" fill="url(#woodDoor)"/>
    <rect x="392" y="354" width="88" height="60" rx="5" fill="url(#woodDoor)"/>
    <rect x="484" y="354" width="88" height="60" rx="5" fill="url(#woodDoor)"/>
    <line x1="388" y1="358" x2="388" y2="410" stroke="#a5876a" stroke-width="1.5" opacity="0.6"/>
    <line x1="480" y1="358" x2="480" y2="410" stroke="#a5876a" stroke-width="1.5" opacity="0.6"/>
    <circle cx="380" cy="384" r="3" fill="#5c4632"/>
    <circle cx="400" cy="384" r="3" fill="#5c4632"/>
    <circle cx="472" cy="384" r="3" fill="#5c4632"/>
    <circle cx="492" cy="384" r="3" fill="#5c4632"/>
    <!-- legs -->
    <rect x="308" y="418" width="10" height="14" rx="3" fill="#6d5138"/>
    <rect x="554" y="418" width="10" height="14" rx="3" fill="#6d5138"/>
    <rect x="290" y="420" width="8" height="6" fill="#e6c58a" opacity="0.4"/>
  </g>

  <!-- TABLE LAMP on sideboard -->
  <g>
    <circle cx="330" cy="316" r="42" fill="url(#lampGlow)"/>
    <rect x="316" y="298" width="28" height="24" rx="3" fill="url(#lampShade)"/>
    <rect x="325" y="322" width="10" height="14" fill="#a5876a"/>
    <rect x="318" y="335" width="24" height="4" rx="2" fill="#6d5138"/>
  </g>

  <!-- LEFT PLANT -->
  <g>
    <ellipse cx="150" cy="470" rx="52" ry="12" fill="rgba(31,27,22,0.12)"/>
    <path d="M124 402 L176 402 L170 470 L130 470 Z" fill="url(#potGrad)"/>
    <rect x="124" y="398" width="52" height="10" rx="4" fill="#e0cba2"/>
    <path d="M150 400 C138 350 120 320 108 292" stroke="#63654a" stroke-width="4" fill="none"/>
    <path d="M150 400 C160 356 178 330 196 306" stroke="#63654a" stroke-width="4" fill="none"/>
    <path d="M150 400 C150 362 150 336 150 300" stroke="#63654a" stroke-width="4" fill="none"/>
    <ellipse cx="106" cy="286" rx="20" ry="34" fill="#7a7c5c" transform="rotate(-24 106 286)"/>
    <ellipse cx="150" cy="292" rx="20" ry="38" fill="#8a8c62"/>
    <ellipse cx="198" cy="300" rx="20" ry="34" fill="#7a7c5c" transform="rotate(22 198 300)"/>
    <ellipse cx="128" cy="330" rx="16" ry="28" fill="#8a8c62" transform="rotate(-14 128 330)"/>
    <ellipse cx="176" cy="336" rx="16" ry="28" fill="#63654a" transform="rotate(16 176 336)"/>
  </g>

  <!-- RIGHT PLANT -->
  <g>
    <ellipse cx="662" cy="478" rx="46" ry="11" fill="rgba(31,27,22,0.12)"/>
    <path d="M640 414 L684 414 L678 478 L646 478 Z" fill="url(#potGrad)"/>
    <rect x="640" y="410" width="44" height="9" rx="4" fill="#e0cba2"/>
    <path d="M662 412 C650 366 636 342 626 316" stroke="#63654a" stroke-width="4" fill="none"/>
    <path d="M662 412 C672 370 686 348 700 324" stroke="#63654a" stroke-width="4" fill="none"/>
    <ellipse cx="624" cy="310" rx="17" ry="30" fill="#7a7c5c" transform="rotate(-22 624 310)"/>
    <ellipse cx="662" cy="318" rx="18" ry="34" fill="#8a8c62"/>
    <ellipse cx="702" cy="320" rx="17" ry="30" fill="#63654a" transform="rotate(24 702 320)"/>
    <ellipse cx="644" cy="352" rx="14" ry="24" fill="#8a8c62" transform="rotate(-16 644 352)"/>
  </g>

  <!-- JUTE RUG -->
  <g>
    <ellipse cx="410" cy="540" rx="300" ry="58" fill="url(#rugGrad)"/>
    <ellipse cx="410" cy="540" rx="300" ry="58" fill="none" stroke="#c0a06f" stroke-width="3" opacity="0.6"/>
    <ellipse cx="410" cy="540" rx="250" ry="46" fill="none" stroke="#cbb287" stroke-width="2" opacity="0.5"/>
    <ellipse cx="410" cy="540" rx="180" ry="32" fill="none" stroke="#c0a06f" stroke-width="2" opacity="0.4"/>
    <ellipse cx="410" cy="540" rx="110" ry="20" fill="none" stroke="#cbb287" stroke-width="2" opacity="0.4"/>
  </g>

  <!-- SOFA (white bouclé) -->
  <g>
    <ellipse cx="400" cy="556" rx="240" ry="26" fill="rgba(31,27,22,0.12)"/>
    <!-- base -->
    <rect x="196" y="470" width="408" height="74" rx="20" fill="url(#boucle)"/>
    <!-- seat cushions -->
    <rect x="210" y="474" width="184" height="48" rx="16" fill="url(#boucleSeat)"/>
    <rect x="404" y="474" width="184" height="48" rx="16" fill="url(#boucleSeat)"/>
    <!-- back cushions -->
    <rect x="214" y="420" width="180" height="66" rx="18" fill="url(#boucle)"/>
    <rect x="404" y="420" width="180" height="66" rx="18" fill="url(#boucle)"/>
    <!-- arms -->
    <rect x="180" y="440" width="46" height="104" rx="20" fill="url(#boucle)"/>
    <rect x="574" y="440" width="46" height="104" rx="20" fill="url(#boucle)"/>
    <!-- bouclé texture dots -->
    <g fill="#efe6d5" opacity="0.7">
      <circle cx="250" cy="446" r="4"/><circle cx="280" cy="458" r="4"/><circle cx="320" cy="444" r="4"/>
      <circle cx="352" cy="460" r="4"/><circle cx="300" cy="470" r="4"/><circle cx="452" cy="446" r="4"/>
      <circle cx="486" cy="458" r="4"/><circle cx="520" cy="446" r="4"/><circle cx="550" cy="462" r="4"/>
      <circle cx="500" cy="472" r="4"/><circle cx="230" cy="470" r="4"/><circle cx="565" cy="470" r="4"/>
    </g>
    <g fill="#d8ccb8" opacity="0.5">
      <circle cx="266" cy="470" r="3"/><circle cx="336" cy="472" r="3"/><circle cx="470" cy="470" r="3"/><circle cx="536" cy="474" r="3"/>
    </g>
    <!-- accent cushions -->
    <rect x="236" y="430" width="52" height="52" rx="12" fill="#8a8c62" transform="rotate(-8 262 456)"/>
    <rect x="502" y="430" width="52" height="52" rx="12" fill="#cf9f5c" transform="rotate(7 528 456)"/>
    <!-- oak legs -->
    <rect x="212" y="540" width="10" height="18" rx="3" fill="#a5876a"/>
    <rect x="330" y="540" width="10" height="18" rx="3" fill="#a5876a"/>
    <rect x="460" y="540" width="10" height="18" rx="3" fill="#a5876a"/>
    <rect x="578" y="540" width="10" height="18" rx="3" fill="#a5876a"/>
  </g>

  <!-- FLOOR LAMP glow lower right (cozy) -->
  <g>
    <ellipse cx="470" cy="472" rx="130" ry="18" fill="#e6c58a" opacity="0.22"/>
  </g>

  <!-- Warm evening vignette -->
  <rect x="0" y="0" width="800" height="600" fill="url(#wallGlow)" opacity="0.35"/>
  <rect x="0" y="0" width="26" height="600" fill="#4a3624" opacity="0.08"/>
  <rect x="774" y="0" width="26" height="600" fill="#4a3624" opacity="0.08"/>
  <rect x="0" y="560" width="800" height="40" fill="#4a3624" opacity="0.1"/>
</svg>
